<?xml version="1.0" encoding="UTF-8" standalone="no"?>
<!DOCTYPE svg PUBLIC "-//W3C//DTD SVG 1.1//EN"
 "http://www.w3.org/Graphics/SVG/1.1/DTD/svg11.dtd">
<!-- Generated by graphviz version 2.40.1 (20161225.0304)
 -->
<!-- Title: snakemake_dag Pages: 1 -->
<svg width="711pt" height="404pt"
 viewBox="0.00 0.00 711.48 404.00" xmlns="http://www.w3.org/2000/svg" xmlns:xlink="http://www.w3.org/1999/xlink">
<g id="graph0" class="graph" transform="scale(1 1) rotate(0) translate(4 400)">
<title>snakemake_dag</title>
<polygon fill="#ffffff" stroke="transparent" points="-4,4 -4,-400 707.4805,-400 707.4805,4 -4,4"/>
<!-- 0 -->
<g id="node1" class="node">
<title>0</title>
<path fill="none" stroke="#59d856" stroke-width="2" d="M158.2696,-180C158.2696,-180 11.9101,-180 11.9101,-180 5.9101,-180 -.0899,-174 -.0899,-168 -.0899,-168 -.0899,-156 -.0899,-156 -.0899,-150 5.9101,-144 11.9101,-144 11.9101,-144 158.2696,-144 158.2696,-144 164.2696,-144 170.2696,-150 170.2696,-156 170.2696,-156 170.2696,-168 170.2696,-168 170.2696,-174 164.2696,-180 158.2696,-180"/>
<text text-anchor="middle" x="85.0898" y="-159" font-family="sans" font-size="10.00" fill="#000000">get_Trinity_gene_to_trans_map_pl</text>
</g>
<!-- 1 -->
<g id="node2" class="node">
<title>1</title>
<path fill="none" stroke="#56d882" stroke-width="2" d="M396.9796,-108C396.9796,-108 333.2001,-108 333.2001,-108 327.2001,-108 321.2001,-102 321.2001,-96 321.2001,-96 321.2001,-84 321.2001,-84 321.2001,-78 327.2001,-72 333.2001,-72 333.2001,-72 396.9796,-72 396.9796,-72 402.9796,-72 408.9796,-78 408.9796,-84 408.9796,-84 408.9796,-96 408.9796,-96 408.9796,-102 402.9796,-108 396.9796,-108"/>
<text text-anchor="middle" x="365.0898" y="-87" font-family="sans" font-size="10.00" fill="#000000">Trinotate_LOAD</text>
</g>
<!-- 0&#45;&gt;1 -->
<g id="edge2" class="edge">
<title>0&#45;&gt;1</title>
<path fill="none" stroke="#c0c0c0" stroke-width="2" d="M155.3843,-143.9243C203.7284,-131.493 266.9607,-115.2332 311.3011,-103.8314"/>
<polygon fill="#c0c0c0" stroke="#c0c0c0" stroke-width="2" points="312.2095,-107.2117 321.0228,-101.3315 310.4662,-100.4323 312.2095,-107.2117"/>
</g>
<!-- 10 -->
<g id="node11" class="node">
<title>10</title>
<path fill="none" stroke="#56a9d8" stroke-width="2" d="M396.3714,-36C396.3714,-36 333.8083,-36 333.8083,-36 327.8083,-36 321.8083,-30 321.8083,-24 321.8083,-24 321.8083,-12 321.8083,-12 321.8083,-6 327.8083,0 333.8083,0 333.8083,0 396.3714,0 396.3714,0 402.3714,0 408.3714,-6 408.3714,-12 408.3714,-12 408.3714,-24 408.3714,-24 408.3714,-30 402.3714,-36 396.3714,-36"/>
<text text-anchor="middle" x="365.0898" y="-15" font-family="sans" font-size="10.00" fill="#000000">Trinotate_report</text>
</g>
<!-- 1&#45;&gt;10 -->
<g id="edge16" class="edge">
<title>1&#45;&gt;10</title>
<path fill="none" stroke="#c0c0c0" stroke-width="2" d="M365.0898,-71.8314C365.0898,-64.131 365.0898,-54.9743 365.0898,-46.4166"/>
<polygon fill="#c0c0c0" stroke="#c0c0c0" stroke-width="2" points="368.5899,-46.4132 365.0898,-36.4133 361.5899,-46.4133 368.5899,-46.4132"/>
</g>
<!-- 2 -->
<g id="node3" class="node">
<title>2</title>
<path fill="none" stroke="#56d8a9" stroke-width="2" d="M268.0898,-252C268.0898,-252 238.0898,-252 238.0898,-252 232.0898,-252 226.0898,-246 226.0898,-240 226.0898,-240 226.0898,-228 226.0898,-228 226.0898,-222 232.0898,-216 238.0898,-216 238.0898,-216 268.0898,-216 268.0898,-216 274.0898,-216 280.0898,-222 280.0898,-228 280.0898,-228 280.0898,-240 280.0898,-240 280.0898,-246 274.0898,-252 268.0898,-252"/>
<text text-anchor="middle" x="253.0898" y="-231" font-family="sans" font-size="10.00" fill="#000000">blastp</text>
</g>
<!-- 2&#45;&gt;1 -->
<g id="edge3" class="edge">
<title>2&#45;&gt;1</title>
<path fill="none" stroke="#c0c0c0" stroke-width="2" d="M267.2747,-215.7623C286.8829,-190.5518 322.3818,-144.9103 344.7936,-116.0952"/>
<polygon fill="#c0c0c0" stroke="#c0c0c0" stroke-width="2" points="347.6434,-118.132 351.0201,-108.0896 342.118,-113.8344 347.6434,-118.132"/>
</g>
<!-- 3 -->
<g id="node4" class="node">
<title>3</title>
<path fill="none" stroke="#d8ac56" stroke-width="2" d="M537.0898,-180C537.0898,-180 507.0898,-180 507.0898,-180 501.0898,-180 495.0898,-174 495.0898,-168 495.0898,-168 495.0898,-156 495.0898,-156 495.0898,-150 501.0898,-144 507.0898,-144 507.0898,-144 537.0898,-144 537.0898,-144 543.0898,-144 549.0898,-150 549.0898,-156 549.0898,-156 549.0898,-168 549.0898,-168 549.0898,-174 543.0898,-180 537.0898,-180"/>
<text text-anchor="middle" x="522.0898" y="-159" font-family="sans" font-size="10.00" fill="#000000">blastx</text>
</g>
<!-- 3&#45;&gt;1 -->
<g id="edge4" class="edge">
<title>3&#45;&gt;1</title>
<path fill="none" stroke="#c0c0c0" stroke-width="2" d="M495.0253,-148.3085C492.0196,-146.8355 488.9957,-145.3741 486.0898,-144 463.2644,-133.2067 437.7693,-121.7423 416.0894,-112.1662"/>
<polygon fill="#c0c0c0" stroke="#c0c0c0" stroke-width="2" points="417.2989,-108.8745 406.7364,-108.0472 414.4776,-115.2808 417.2989,-108.8745"/>
</g>
<!-- 4 -->
<g id="node5" class="node">
<title>4</title>
<path fill="none" stroke="#d6d856" stroke-width="2" d="M345.9356,-252C345.9356,-252 310.2441,-252 310.2441,-252 304.2441,-252 298.2441,-246 298.2441,-240 298.2441,-240 298.2441,-228 298.2441,-228 298.2441,-222 304.2441,-216 310.2441,-216 310.2441,-216 345.9356,-216 345.9356,-216 351.9356,-216 357.9356,-222 357.9356,-228 357.9356,-228 357.9356,-240 357.9356,-240 357.9356,-246 351.9356,-252 345.9356,-252"/>
<text text-anchor="middle" x="328.0898" y="-231" font-family="sans" font-size="10.00" fill="#000000">hmmscan</text>
</g>
<!-- 4&#45;&gt;1 -->
<g id="edge5" class="edge">
<title>4&#45;&gt;1</title>
<path fill="none" stroke="#c0c0c0" stroke-width="2" d="M332.7759,-215.7623C339.1146,-191.0928 350.48,-146.8598 357.9023,-117.9731"/>
<polygon fill="#c0c0c0" stroke="#c0c0c0" stroke-width="2" points="361.343,-118.6461 360.4418,-108.0896 354.5632,-116.904 361.343,-118.6461"/>
</g>
<!-- 5 -->
<g id="node6" class="node">
<title>5</title>
<path fill="none" stroke="#56d8d8" stroke-width="2" d="M691.3713,-180C691.3713,-180 578.8084,-180 578.8084,-180 572.8084,-180 566.8084,-174 566.8084,-168 566.8084,-168 566.8084,-156 566.8084,-156 566.8084,-150 572.8084,-144 578.8084,-144 578.8084,-144 691.3713,-144 691.3713,-144 697.3713,-144 703.3713,-150 703.3713,-156 703.3713,-156 703.3713,-168 703.3713,-168 703.3713,-174 697.3713,-180 691.3713,-180"/>
<text text-anchor="middle" x="635.0898" y="-159" font-family="sans" font-size="10.00" fill="#000000">RnammerTranscriptome_pl</text>
</g>
<!-- 5&#45;&gt;1 -->
<g id="edge6" class="edge">
<title>5&#45;&gt;1</title>
<path fill="none" stroke="#c0c0c0" stroke-width="2" d="M567.306,-143.9243C521.4628,-131.6994 461.736,-115.7723 419.1031,-104.4035"/>
<polygon fill="#c0c0c0" stroke="#c0c0c0" stroke-width="2" points="419.7593,-100.9563 409.1951,-101.7614 417.9556,-107.7199 419.7593,-100.9563"/>
</g>
<!-- 6 -->
<g id="node7" class="node">
<title>6</title>
<path fill="none" stroke="#80d856" stroke-width="2" d="M458.0898,-252C458.0898,-252 428.0898,-252 428.0898,-252 422.0898,-252 416.0898,-246 416.0898,-240 416.0898,-240 416.0898,-228 416.0898,-228 416.0898,-222 422.0898,-216 428.0898,-216 428.0898,-216 458.0898,-216 458.0898,-216 464.0898,-216 470.0898,-222 470.0898,-228 470.0898,-228 470.0898,-240 470.0898,-240 470.0898,-246 464.0898,-252 458.0898,-252"/>
<text text-anchor="middle" x="443.0898" y="-231" font-family="sans" font-size="10.00" fill="#000000">signalp</text>
</g>
<!-- 7 -->
<g id="node8" class="node">
<title>7</title>
<path fill="none" stroke="#afd856" stroke-width="2" d="M465.5013,-180C465.5013,-180 422.6784,-180 422.6784,-180 416.6784,-180 410.6784,-174 410.6784,-168 410.6784,-168 410.6784,-156 410.6784,-156 410.6784,-150 416.6784,-144 422.6784,-144 422.6784,-144 465.5013,-144 465.5013,-144 471.5013,-144 477.5013,-150 477.5013,-156 477.5013,-156 477.5013,-168 477.5013,-168 477.5013,-174 471.5013,-180 465.5013,-180"/>
<text text-anchor="middle" x="444.0898" y="-159" font-family="sans" font-size="10.00" fill="#000000">rename_gff</text>
</g>
<!-- 6&#45;&gt;7 -->
<g id="edge12" class="edge">
<title>6&#45;&gt;7</title>
<path fill="none" stroke="#c0c0c0" stroke-width="2" d="M443.3422,-215.8314C443.4491,-208.131 443.5763,-198.9743 443.6952,-190.4166"/>
<polygon fill="#c0c0c0" stroke="#c0c0c0" stroke-width="2" points="447.1948,-190.4609 443.8341,-180.4133 440.1955,-190.3637 447.1948,-190.4609"/>
</g>
<!-- 7&#45;&gt;1 -->
<g id="edge8" class="edge">
<title>7&#45;&gt;1</title>
<path fill="none" stroke="#c0c0c0" stroke-width="2" d="M424.1548,-143.8314C414.6116,-135.1337 403.03,-124.5783 392.6592,-115.1265"/>
<polygon fill="#c0c0c0" stroke="#c0c0c0" stroke-width="2" points="394.7671,-112.3121 385.0185,-108.1628 390.0518,-117.4857 394.7671,-112.3121"/>
</g>
<!-- 8 -->
<g id="node9" class="node">
<title>8</title>
<path fill="none" stroke="#5682d8" stroke-width="2" d="M388.0898,-324C388.0898,-324 358.0898,-324 358.0898,-324 352.0898,-324 346.0898,-318 346.0898,-312 346.0898,-312 346.0898,-300 346.0898,-300 346.0898,-294 352.0898,-288 358.0898,-288 358.0898,-288 388.0898,-288 388.0898,-288 394.0898,-288 400.0898,-294 400.0898,-300 400.0898,-300 400.0898,-312 400.0898,-312 400.0898,-318 394.0898,-324 388.0898,-324"/>
<text text-anchor="middle" x="373.0898" y="-303" font-family="sans" font-size="10.00" fill="#000000">tmhmm</text>
</g>
<!-- 8&#45;&gt;1 -->
<g id="edge1" class="edge">
<title>8&#45;&gt;1</title>
<path fill="none" stroke="#c0c0c0" stroke-width="2" d="M372.4215,-287.9555C371.0304,-250.3938 367.8141,-163.5541 366.1421,-118.4103"/>
<polygon fill="#c0c0c0" stroke="#c0c0c0" stroke-width="2" points="369.6297,-118.0086 365.7619,-108.1451 362.6345,-118.2678 369.6297,-118.0086"/>
</g>
<!-- 9 -->
<g id="node10" class="node">
<title>9</title>
<path fill="none" stroke="#d88556" stroke-width="2" d="M524.4366,-324C524.4366,-324 429.7431,-324 429.7431,-324 423.7431,-324 417.7431,-318 417.7431,-312 417.7431,-312 417.7431,-300 417.7431,-300 417.7431,-294 423.7431,-288 429.7431,-288 429.7431,-288 524.4366,-288 524.4366,-288 530.4366,-288 536.4366,-294 536.4366,-300 536.4366,-300 536.4366,-312 536.4366,-312 536.4366,-318 530.4366,-324 524.4366,-324"/>
<text text-anchor="middle" x="477.0898" y="-303" font-family="sans" font-size="10.00" fill="#000000">rename_fasta_headers</text>
</g>
<!-- 9&#45;&gt;6 -->
<g id="edge11" class="edge">
<title>9&#45;&gt;6</title>
<path fill="none" stroke="#c0c0c0" stroke-width="2" d="M468.5102,-287.8314C464.754,-279.8771 460.2641,-270.369 456.1101,-261.5723"/>
<polygon fill="#c0c0c0" stroke="#c0c0c0" stroke-width="2" points="459.22,-259.9612 451.785,-252.4133 452.8902,-262.9503 459.22,-259.9612"/>
</g>
<!-- 9&#45;&gt;7 -->
<g id="edge13" class="edge">
<title>9&#45;&gt;7</title>
<path fill="none" stroke="#c0c0c0" stroke-width="2" d="M480.6597,-287.9854C483.5949,-269.5056 486.2257,-240.1294 479.0898,-216 476.2211,-206.2994 471.0031,-196.7055 465.4566,-188.3563"/>
<polygon fill="#c0c0c0" stroke="#c0c0c0" stroke-width="2" points="468.2807,-186.2881 459.6423,-180.1538 462.5699,-190.3362 468.2807,-186.2881"/>
</g>
<!-- 11 -->
<g id="node12" class="node">
<title>11</title>
<path fill="none" stroke="#d85656" stroke-width="2" d="M345.583,-396C345.583,-396 290.5967,-396 290.5967,-396 284.5967,-396 278.5967,-390 278.5967,-384 278.5967,-384 278.5967,-372 278.5967,-372 278.5967,-366 284.5967,-360 290.5967,-360 290.5967,-360 345.583,-360 345.583,-360 351.583,-360 357.583,-366 357.583,-372 357.583,-372 357.583,-384 357.583,-384 357.583,-390 351.583,-396 345.583,-396"/>
<text text-anchor="middle" x="318.0898" y="-375" font-family="sans" font-size="10.00" fill="#000000">TransDecoder</text>
</g>
<!-- 11&#45;&gt;1 -->
<g id="edge7" class="edge">
<title>11&#45;&gt;1</title>
<path fill="none" stroke="#c0c0c0" stroke-width="2" d="M292.6386,-359.842C255.4768,-330.9246 193.2437,-271.9482 217.0898,-216 236.8496,-169.6394 283.9228,-134.489 319.7168,-113.2469"/>
<polygon fill="#c0c0c0" stroke="#c0c0c0" stroke-width="2" points="321.6396,-116.1783 328.5505,-108.1477 318.1401,-110.1159 321.6396,-116.1783"/>
</g>
<!-- 11&#45;&gt;2 -->
<g id="edge9" class="edge">
<title>11&#45;&gt;2</title>
<path fill="none" stroke="#c0c0c0" stroke-width="2" d="M309.8575,-359.7623C298.6243,-334.8764 278.4047,-290.0822 265.3751,-261.2165"/>
<polygon fill="#c0c0c0" stroke="#c0c0c0" stroke-width="2" points="268.5596,-259.7641 261.2553,-252.0896 262.1795,-262.6441 268.5596,-259.7641"/>
</g>
<!-- 11&#45;&gt;4 -->
<g id="edge10" class="edge">
<title>11&#45;&gt;4</title>
<path fill="none" stroke="#c0c0c0" stroke-width="2" d="M319.3564,-359.7623C321.062,-335.201 324.1143,-291.2474 326.1208,-262.3541"/>
<polygon fill="#c0c0c0" stroke="#c0c0c0" stroke-width="2" points="329.6323,-262.3081 326.8336,-252.0896 322.6492,-261.8231 329.6323,-262.3081"/>
</g>
<!-- 11&#45;&gt;8 -->
<g id="edge14" class="edge">
<title>11&#45;&gt;8</title>
<path fill="none" stroke="#c0c0c0" stroke-width="2" d="M331.9687,-359.8314C338.3034,-351.5386 345.9282,-341.557 352.8824,-332.4533"/>
<polygon fill="#c0c0c0" stroke="#c0c0c0" stroke-width="2" points="355.7351,-334.4847 359.0242,-324.4133 350.1724,-330.2353 355.7351,-334.4847"/>
</g>
<!-- 11&#45;&gt;9 -->
<g id="edge15" class="edge">
<title>11&#45;&gt;9</title>
<path fill="none" stroke="#c0c0c0" stroke-width="2" d="M357.8021,-360.0171C379.0499,-350.3954 405.4066,-338.4603 427.9371,-328.2578"/>
<polygon fill="#c0c0c0" stroke="#c0c0c0" stroke-width="2" points="429.667,-331.3167 437.3328,-324.0032 426.7794,-324.94 429.667,-331.3167"/>
</g>
</g>
</svg>
